<mxfile host="app.diagrams.net" modified="2021-11-15T04:17:44.705Z" agent="5.0 (Windows NT 10.0; Win64; x64) AppleWebKit/537.36 (KHTML, like Gecko) Chrome/95.0.4638.69 Safari/537.36" etag="O12aQsnu3obWwnwkN5xW" version="15.2.9" type="github">
  <diagram id="ZKK7Xh2nmRTc22aEWUPY" name="Page-1">
    <mxGraphModel dx="1695" dy="1619" grid="1" gridSize="10" guides="1" tooltips="1" connect="1" arrows="1" fold="1" page="1" pageScale="1" pageWidth="827" pageHeight="1169" math="0" shadow="0">
      <root>
        <mxCell id="0" />
        <mxCell id="1" parent="0" />
        <mxCell id="v2i8IFnvXQYw_XU6sGci-10" value="" style="rounded=0;whiteSpace=wrap;html=1;fillColor=#fff2cc;strokeColor=#d6b656;strokeWidth=2;fontSize=14;" parent="1" vertex="1">
          <mxGeometry x="-210" y="-940" width="2810" height="3260" as="geometry" />
        </mxCell>
        <mxCell id="v2i8IFnvXQYw_XU6sGci-6" value="AUTENTICACION BIOMETRICA - MODELO C4" style="text;strokeColor=none;fillColor=none;html=1;fontSize=33;fontStyle=1;verticalAlign=middle;align=center;strokeWidth=5;" parent="1" vertex="1">
          <mxGeometry x="-120" y="-890" width="759" height="40" as="geometry" />
        </mxCell>
        <mxCell id="v2i8IFnvXQYw_XU6sGci-7" value="" style="line;strokeWidth=4;fillColor=none;align=left;verticalAlign=middle;spacingTop=-1;spacingLeft=3;spacingRight=3;rotatable=0;labelPosition=right;points=[];portConstraint=eastwest;fontSize=14;" parent="1" vertex="1">
          <mxGeometry x="-106" y="-830" width="920" height="8" as="geometry" />
        </mxCell>
        <mxCell id="mpdO8tZQgs7oVaQ_EQz1-1" value="" style="rounded=0;whiteSpace=wrap;html=1;" parent="1" vertex="1">
          <mxGeometry x="-130" y="-750" width="2610" height="3000" as="geometry" />
        </mxCell>
        <mxCell id="mpdO8tZQgs7oVaQ_EQz1-2" value="Diagrama de componentes Parte 1/2" style="text;strokeColor=none;fillColor=none;html=1;fontSize=35;fontStyle=1;verticalAlign=middle;align=center;" parent="1" vertex="1">
          <mxGeometry x="-71" y="-710" width="661" height="40" as="geometry" />
        </mxCell>
        <mxCell id="mpdO8tZQgs7oVaQ_EQz1-3" value="" style="shape=folder;tabWidth=1318;tabHeight=58;tabPosition=left;strokeWidth=2;html=1;whiteSpace=wrap;align=center;" parent="1" vertex="1">
          <mxGeometry x="-77.5" y="-608" width="2457.5" height="2748" as="geometry" />
        </mxCell>
        <mxCell id="mpdO8tZQgs7oVaQ_EQz1-4" value="" style="shape=folder;tabWidth=950;tabHeight=70;tabPosition=left;strokeWidth=2;html=1;whiteSpace=wrap;align=center;" parent="1" vertex="1">
          <mxGeometry x="-20" y="-500" width="2330" height="1772.5" as="geometry" />
        </mxCell>
        <mxCell id="mpdO8tZQgs7oVaQ_EQz1-5" value="&lt;b style=&quot;font-size: 35px;&quot;&gt;&lt;font style=&quot;font-size: 35px;&quot;&gt;com.&lt;/font&gt;&lt;/b&gt;&lt;font style=&quot;font-size: 35px;&quot;&gt;&lt;b style=&quot;font-size: 35px;&quot;&gt;co.autenticacionbiometricaapirest.&lt;/b&gt;&lt;span style=&quot;font-size: 35px;&quot;&gt;&lt;b style=&quot;font-size: 35px;&quot;&gt;pilotoautenticacionbiometrica&lt;/b&gt;&lt;/span&gt;&lt;/font&gt;" style="text;html=1;strokeColor=none;fillColor=none;align=center;verticalAlign=middle;whiteSpace=wrap;rounded=0;fontSize=35;" parent="1" vertex="1">
          <mxGeometry x="-66.25" y="-590" width="1226.25" height="20" as="geometry" />
        </mxCell>
        <mxCell id="mpdO8tZQgs7oVaQ_EQz1-6" value="" style="shape=folder;tabWidth=445;tabHeight=40;tabPosition=left;strokeWidth=2;html=1;whiteSpace=wrap;align=center;" parent="1" vertex="1">
          <mxGeometry x="15" y="-380" width="935" height="420" as="geometry" />
        </mxCell>
        <mxCell id="mpdO8tZQgs7oVaQ_EQz1-7" value="&lt;b style=&quot;font-size: 35px;&quot;&gt;&lt;font style=&quot;font-size: 35px;&quot;&gt;controller&lt;/font&gt;&lt;/b&gt;" style="text;html=1;strokeColor=none;fillColor=none;align=center;verticalAlign=middle;whiteSpace=wrap;rounded=0;fontSize=35;" parent="1" vertex="1">
          <mxGeometry x="55" y="-370" width="125" height="20" as="geometry" />
        </mxCell>
        <mxCell id="mpdO8tZQgs7oVaQ_EQz1-8" value="" style="shape=folder;tabWidth=443;tabHeight=50;tabPosition=left;strokeWidth=2;html=1;whiteSpace=wrap;align=center;" parent="1" vertex="1">
          <mxGeometry x="17.5" y="100" width="932.5" height="530" as="geometry" />
        </mxCell>
        <mxCell id="mpdO8tZQgs7oVaQ_EQz1-9" value="&lt;b style=&quot;font-size: 35px;&quot;&gt;&lt;font style=&quot;font-size: 35px;&quot;&gt;model&lt;/font&gt;&lt;/b&gt;" style="text;html=1;strokeColor=none;fillColor=none;align=center;verticalAlign=middle;whiteSpace=wrap;rounded=0;fontSize=35;" parent="1" vertex="1">
          <mxGeometry x="42.5" y="110" width="82.5" height="20" as="geometry" />
        </mxCell>
        <mxCell id="mpdO8tZQgs7oVaQ_EQz1-10" value="" style="shape=folder;tabWidth=509;tabHeight=50;tabPosition=left;strokeWidth=2;html=1;whiteSpace=wrap;align=center;" parent="1" vertex="1">
          <mxGeometry x="1100" y="-400" width="1150" height="435" as="geometry" />
        </mxCell>
        <mxCell id="mpdO8tZQgs7oVaQ_EQz1-11" value="&lt;b style=&quot;font-size: 35px;&quot;&gt;&lt;font style=&quot;font-size: 35px;&quot;&gt;service&lt;/font&gt;&lt;/b&gt;" style="text;html=1;strokeColor=none;fillColor=none;align=center;verticalAlign=middle;whiteSpace=wrap;rounded=0;fontSize=35;" parent="1" vertex="1">
          <mxGeometry x="1350" y="-380" width="85" height="20" as="geometry" />
        </mxCell>
        <mxCell id="mpdO8tZQgs7oVaQ_EQz1-12" value="" style="shape=folder;tabWidth=510;tabHeight=50;tabPosition=left;strokeWidth=2;html=1;whiteSpace=wrap;align=center;" parent="1" vertex="1">
          <mxGeometry x="1100" y="90" width="1150" height="530" as="geometry" />
        </mxCell>
        <mxCell id="mpdO8tZQgs7oVaQ_EQz1-13" value="&lt;b style=&quot;font-size: 35px;&quot;&gt;&lt;font style=&quot;font-size: 35px;&quot;&gt;dao&lt;/font&gt;&lt;/b&gt;" style="text;html=1;strokeColor=none;fillColor=none;align=center;verticalAlign=middle;whiteSpace=wrap;rounded=0;fontSize=35;" parent="1" vertex="1">
          <mxGeometry x="1317.5" y="110" width="90" height="20" as="geometry" />
        </mxCell>
        <mxCell id="mpdO8tZQgs7oVaQ_EQz1-14" value="UsuarioController&#xa;&lt;&lt;class&gt;&gt;" style="swimlane;fontStyle=1;align=center;verticalAlign=top;childLayout=stackLayout;horizontal=1;startSize=74;horizontalStack=0;resizeParent=1;resizeParentMax=0;resizeLast=0;collapsible=1;marginBottom=0;fontSize=28;" parent="1" vertex="1">
          <mxGeometry x="42.5" y="-313.5" width="417.5" height="260" as="geometry" />
        </mxCell>
        <mxCell id="mpdO8tZQgs7oVaQ_EQz1-15" value="- UsuarioService usuarioService" style="text;strokeColor=none;fillColor=none;align=left;verticalAlign=top;spacingLeft=4;spacingRight=4;overflow=hidden;rotatable=0;points=[[0,0.5],[1,0.5]];portConstraint=eastwest;fontSize=25;" parent="mpdO8tZQgs7oVaQ_EQz1-14" vertex="1">
          <mxGeometry y="74" width="417.5" height="23" as="geometry" />
        </mxCell>
        <mxCell id="mpdO8tZQgs7oVaQ_EQz1-16" value="" style="line;strokeWidth=1;fillColor=none;align=left;verticalAlign=middle;spacingTop=-1;spacingLeft=3;spacingRight=3;rotatable=0;labelPosition=right;points=[];portConstraint=eastwest;" parent="mpdO8tZQgs7oVaQ_EQz1-14" vertex="1">
          <mxGeometry y="97" width="417.5" height="43" as="geometry" />
        </mxCell>
        <mxCell id="mpdO8tZQgs7oVaQ_EQz1-17" value="+ UsuarioResponse crearUsuario(UsuarioRequest)&#xa;+ UsuarioResponse editarUsuario(UsuarioRequest)" style="text;strokeColor=none;fillColor=none;align=left;verticalAlign=top;spacingLeft=4;spacingRight=4;overflow=hidden;rotatable=0;points=[[0,0.5],[1,0.5]];portConstraint=eastwest;fontSize=25;" parent="mpdO8tZQgs7oVaQ_EQz1-14" vertex="1">
          <mxGeometry y="140" width="417.5" height="120" as="geometry" />
        </mxCell>
        <mxCell id="mpdO8tZQgs7oVaQ_EQz1-18" value="UsuarioService&#xa;&lt;interface&gt;" style="swimlane;fontStyle=1;align=center;verticalAlign=top;childLayout=stackLayout;horizontal=1;startSize=80;horizontalStack=0;resizeParent=1;resizeParentMax=0;resizeLast=0;collapsible=1;marginBottom=0;fillColor=#67AB9F;fontSize=28;" parent="1" vertex="1">
          <mxGeometry x="520" y="-302.5" width="275" height="110" as="geometry" />
        </mxCell>
        <mxCell id="mpdO8tZQgs7oVaQ_EQz1-19" value="Extends" style="endArrow=block;endSize=16;endFill=0;html=1;entryX=0;entryY=0.5;entryDx=0;entryDy=0;startArrow=none;exitX=0.998;exitY=0.116;exitDx=0;exitDy=0;exitPerimeter=0;fontSize=20;" parent="1" source="mpdO8tZQgs7oVaQ_EQz1-34" target="mpdO8tZQgs7oVaQ_EQz1-72" edge="1">
          <mxGeometry width="160" relative="1" as="geometry">
            <mxPoint x="228.55999999999995" y="265.53200000000015" as="sourcePoint" />
            <mxPoint x="340.5" y="245.25" as="targetPoint" />
          </mxGeometry>
        </mxCell>
        <mxCell id="mpdO8tZQgs7oVaQ_EQz1-20" value="UsuarioServiceImpl&#xa;&lt;&lt;class&gt;&gt;" style="swimlane;fontStyle=1;align=center;verticalAlign=top;childLayout=stackLayout;horizontal=1;startSize=83;horizontalStack=0;resizeParent=1;resizeParentMax=0;resizeLast=0;collapsible=1;marginBottom=0;fillColor=#FFFFFF;fontSize=28;" parent="1" vertex="1">
          <mxGeometry x="1177.25" y="-313.5" width="502.75" height="275" as="geometry" />
        </mxCell>
        <mxCell id="mpdO8tZQgs7oVaQ_EQz1-21" value="- UsuarioService usuarioService&#xa;- UsuarioServiceDAO usuarioServiceDAO" style="text;strokeColor=none;fillColor=none;align=left;verticalAlign=top;spacingLeft=4;spacingRight=4;overflow=hidden;rotatable=0;points=[[0,0.5],[1,0.5]];portConstraint=eastwest;fontSize=28;" parent="mpdO8tZQgs7oVaQ_EQz1-20" vertex="1">
          <mxGeometry y="83" width="502.75" height="184" as="geometry" />
        </mxCell>
        <mxCell id="mpdO8tZQgs7oVaQ_EQz1-22" value="" style="line;strokeWidth=1;fillColor=none;align=left;verticalAlign=middle;spacingTop=-1;spacingLeft=3;spacingRight=3;rotatable=0;labelPosition=right;points=[];portConstraint=eastwest;" parent="mpdO8tZQgs7oVaQ_EQz1-20" vertex="1">
          <mxGeometry y="267" width="502.75" height="8" as="geometry" />
        </mxCell>
        <mxCell id="mpdO8tZQgs7oVaQ_EQz1-23" value="UsuarioServiceDAO&#xa;&lt;&lt;interface&gt;&gt;" style="swimlane;fontStyle=1;align=center;verticalAlign=top;childLayout=stackLayout;horizontal=1;startSize=86;horizontalStack=0;resizeParent=1;resizeParentMax=0;resizeLast=0;collapsible=1;marginBottom=0;fillColor=#FFFFFF;fontSize=28;" parent="1" vertex="1">
          <mxGeometry x="1177.5" y="219" width="429.5" height="240" as="geometry" />
        </mxCell>
        <mxCell id="mpdO8tZQgs7oVaQ_EQz1-24" value="" style="line;strokeWidth=1;fillColor=none;align=left;verticalAlign=middle;spacingTop=-1;spacingLeft=3;spacingRight=3;rotatable=0;labelPosition=right;points=[];portConstraint=eastwest;" parent="mpdO8tZQgs7oVaQ_EQz1-23" vertex="1">
          <mxGeometry y="86" width="429.5" height="8" as="geometry" />
        </mxCell>
        <mxCell id="mpdO8tZQgs7oVaQ_EQz1-25" value="+ Usuario crearUsuario(Usuario)&#xa;+ Usuario actualizarUsuario(Usuario)" style="text;strokeColor=none;fillColor=none;align=left;verticalAlign=top;spacingLeft=4;spacingRight=4;overflow=hidden;rotatable=0;points=[[0,0.5],[1,0.5]];portConstraint=eastwest;fontSize=25;" parent="mpdO8tZQgs7oVaQ_EQz1-23" vertex="1">
          <mxGeometry y="94" width="429.5" height="146" as="geometry" />
        </mxCell>
        <mxCell id="mpdO8tZQgs7oVaQ_EQz1-26" value="JPARepository&lt;Usuario&gt;&#xa;&lt;&lt;interface&gt;&gt;" style="swimlane;fontStyle=1;align=center;verticalAlign=top;childLayout=stackLayout;horizontal=1;startSize=90;horizontalStack=0;resizeParent=1;resizeParentMax=0;resizeLast=0;collapsible=1;marginBottom=0;fillColor=#67AB9F;fontSize=28;" parent="1" vertex="1">
          <mxGeometry x="1765" y="235" width="425" height="150" as="geometry" />
        </mxCell>
        <mxCell id="mpdO8tZQgs7oVaQ_EQz1-27" value="&lt;span style=&quot;font-size: 35px;&quot;&gt;&lt;b style=&quot;font-size: 35px;&quot;&gt;administracion.usuario&lt;/b&gt;&lt;/span&gt;" style="text;html=1;strokeColor=none;fillColor=none;align=center;verticalAlign=middle;whiteSpace=wrap;rounded=0;fontSize=35;" parent="1" vertex="1">
          <mxGeometry x="32.5" y="-470" width="322.5" height="20" as="geometry" />
        </mxCell>
        <mxCell id="mpdO8tZQgs7oVaQ_EQz1-28" value="" style="endArrow=block;dashed=1;endFill=0;endSize=12;html=1;exitX=1.01;exitY=0.31;exitDx=0;exitDy=0;entryX=0;entryY=0.5;entryDx=0;entryDy=0;exitPerimeter=0;" parent="1" source="mpdO8tZQgs7oVaQ_EQz1-21" target="mpdO8tZQgs7oVaQ_EQz1-30" edge="1">
          <mxGeometry width="160" relative="1" as="geometry">
            <mxPoint x="1731.25" y="-70" as="sourcePoint" />
            <mxPoint x="1721.25" y="-100" as="targetPoint" />
          </mxGeometry>
        </mxCell>
        <mxCell id="mpdO8tZQgs7oVaQ_EQz1-29" value="UsuarioService&#xa;&lt;&lt;interface&gt;&gt;" style="swimlane;fontStyle=1;align=center;verticalAlign=top;childLayout=stackLayout;horizontal=1;startSize=73;horizontalStack=0;resizeParent=1;resizeParentMax=0;resizeLast=0;collapsible=1;marginBottom=0;fillColor=#FFFFFF;fontSize=28;" parent="1" vertex="1">
          <mxGeometry x="1765" y="-268" width="435" height="195" as="geometry" />
        </mxCell>
        <mxCell id="mpdO8tZQgs7oVaQ_EQz1-30" value="- UsuarioServiceDAO chanceService" style="text;strokeColor=none;fillColor=none;align=left;verticalAlign=top;spacingLeft=4;spacingRight=4;overflow=hidden;rotatable=0;points=[[0,0.5],[1,0.5]];portConstraint=eastwest;fontSize=25;" parent="mpdO8tZQgs7oVaQ_EQz1-29" vertex="1">
          <mxGeometry y="73" width="435" height="47" as="geometry" />
        </mxCell>
        <mxCell id="mpdO8tZQgs7oVaQ_EQz1-31" value="" style="line;strokeWidth=1;fillColor=none;align=left;verticalAlign=middle;spacingTop=-1;spacingLeft=3;spacingRight=3;rotatable=0;labelPosition=right;points=[];portConstraint=eastwest;" parent="mpdO8tZQgs7oVaQ_EQz1-29" vertex="1">
          <mxGeometry y="120" width="435" height="8" as="geometry" />
        </mxCell>
        <mxCell id="mpdO8tZQgs7oVaQ_EQz1-32" value="+ UsuarioResponse crearUsuario(UsuarioRequest)&#xa;+ UsuarioResponse actualizarUsuario(UsuarioRequest)" style="text;strokeColor=none;fillColor=none;align=left;verticalAlign=top;spacingLeft=4;spacingRight=4;overflow=hidden;rotatable=0;points=[[0,0.5],[1,0.5]];portConstraint=eastwest;fontSize=25;" parent="mpdO8tZQgs7oVaQ_EQz1-29" vertex="1">
          <mxGeometry y="128" width="435" height="67" as="geometry" />
        </mxCell>
        <mxCell id="mpdO8tZQgs7oVaQ_EQz1-33" value="" style="endArrow=block;dashed=1;endFill=0;endSize=12;html=1;exitX=1.008;exitY=0.378;exitDx=0;exitDy=0;entryX=0;entryY=0.5;entryDx=0;entryDy=0;exitPerimeter=0;" parent="1" source="mpdO8tZQgs7oVaQ_EQz1-23" target="mpdO8tZQgs7oVaQ_EQz1-26" edge="1">
          <mxGeometry width="160" relative="1" as="geometry">
            <mxPoint x="1600.5" y="285" as="sourcePoint" />
            <mxPoint x="1715.5" y="251.8800000000001" as="targetPoint" />
          </mxGeometry>
        </mxCell>
        <mxCell id="mpdO8tZQgs7oVaQ_EQz1-34" value="Usuario&#xa;&lt;&lt;class&gt;&gt;" style="swimlane;fontStyle=1;align=center;verticalAlign=top;childLayout=stackLayout;horizontal=1;startSize=90;horizontalStack=0;resizeParent=1;resizeParentMax=0;resizeLast=0;collapsible=1;marginBottom=0;fillColor=#FFFFFF;fontSize=28;" parent="1" vertex="1">
          <mxGeometry x="45.5" y="210" width="295" height="380" as="geometry" />
        </mxCell>
        <mxCell id="mpdO8tZQgs7oVaQ_EQz1-35" value="- usuario: String&#xa;- clave: String&#xa;- nombre: String&#xa;- apellidos: String&#xa;- identificacion: String&#xa;- idPerfil: BigInteger" style="text;strokeColor=none;fillColor=none;align=left;verticalAlign=top;spacingLeft=4;spacingRight=4;overflow=hidden;rotatable=0;points=[[0,0.5],[1,0.5]];portConstraint=eastwest;fontSize=25;" parent="mpdO8tZQgs7oVaQ_EQz1-34" vertex="1">
          <mxGeometry y="90" width="295" height="210" as="geometry" />
        </mxCell>
        <mxCell id="mpdO8tZQgs7oVaQ_EQz1-36" value="" style="line;strokeWidth=1;fillColor=none;align=left;verticalAlign=middle;spacingTop=-1;spacingLeft=3;spacingRight=3;rotatable=0;labelPosition=right;points=[];portConstraint=eastwest;" parent="mpdO8tZQgs7oVaQ_EQz1-34" vertex="1">
          <mxGeometry y="300" width="295" height="8" as="geometry" />
        </mxCell>
        <mxCell id="mpdO8tZQgs7oVaQ_EQz1-37" value="+ getters()&#xa;+ setter()" style="text;strokeColor=none;fillColor=none;align=left;verticalAlign=top;spacingLeft=4;spacingRight=4;overflow=hidden;rotatable=0;points=[[0,0.5],[1,0.5]];portConstraint=eastwest;fontSize=25;" parent="mpdO8tZQgs7oVaQ_EQz1-34" vertex="1">
          <mxGeometry y="308" width="295" height="72" as="geometry" />
        </mxCell>
        <mxCell id="mpdO8tZQgs7oVaQ_EQz1-67" value="" style="endArrow=block;dashed=1;endFill=0;endSize=12;html=1;exitX=1;exitY=0.25;exitDx=0;exitDy=0;entryX=0;entryY=0.5;entryDx=0;entryDy=0;" parent="1" source="mpdO8tZQgs7oVaQ_EQz1-14" target="mpdO8tZQgs7oVaQ_EQz1-18" edge="1">
          <mxGeometry width="160" relative="1" as="geometry">
            <mxPoint x="1092.5" y="-112.25" as="sourcePoint" />
            <mxPoint x="322.5" y="-119.5" as="targetPoint" />
          </mxGeometry>
        </mxCell>
        <mxCell id="mpdO8tZQgs7oVaQ_EQz1-70" value="" style="endArrow=block;dashed=1;endFill=0;endSize=12;html=1;entryX=0.5;entryY=0;entryDx=0;entryDy=0;exitX=0.428;exitY=0.812;exitDx=0;exitDy=0;exitPerimeter=0;" parent="1" source="mpdO8tZQgs7oVaQ_EQz1-22" target="mpdO8tZQgs7oVaQ_EQz1-23" edge="1">
          <mxGeometry width="160" relative="1" as="geometry">
            <mxPoint x="1410" y="-10" as="sourcePoint" />
            <mxPoint x="1481.25" y="140" as="targetPoint" />
          </mxGeometry>
        </mxCell>
        <mxCell id="mpdO8tZQgs7oVaQ_EQz1-72" value="EntidadGeneral&#xa;&lt;&lt;class&gt;&gt;" style="swimlane;fontStyle=1;align=center;verticalAlign=top;childLayout=stackLayout;horizontal=1;startSize=43;horizontalStack=0;resizeParent=1;resizeParentMax=0;resizeLast=0;collapsible=1;marginBottom=0;fillColor=#67AB9F;fontSize=28;" parent="1" vertex="1">
          <mxGeometry x="490" y="210" width="301" height="88.5" as="geometry" />
        </mxCell>
        <mxCell id="mpdO8tZQgs7oVaQ_EQz1-115" value="" style="shape=folder;tabWidth=470;tabHeight=50;tabPosition=left;strokeWidth=2;html=1;whiteSpace=wrap;align=center;" parent="1" vertex="1">
          <mxGeometry x="1100" y="660" width="1150" height="567" as="geometry" />
        </mxCell>
        <mxCell id="mpdO8tZQgs7oVaQ_EQz1-116" value="&lt;b style=&quot;font-size: 35px;&quot;&gt;&lt;font style=&quot;font-size: 35px;&quot;&gt;beans&lt;/font&gt;&lt;/b&gt;" style="text;html=1;strokeColor=none;fillColor=none;align=center;verticalAlign=middle;whiteSpace=wrap;rounded=0;fontSize=35;" parent="1" vertex="1">
          <mxGeometry x="1357.5" y="677" width="40" height="20" as="geometry" />
        </mxCell>
        <mxCell id="mpdO8tZQgs7oVaQ_EQz1-117" value="UsuarioResponse &#xa;&lt;&lt;class&gt;&gt;" style="swimlane;fontStyle=1;align=center;verticalAlign=top;childLayout=stackLayout;horizontal=1;startSize=87;horizontalStack=0;resizeParent=1;resizeParentMax=0;resizeLast=0;collapsible=1;marginBottom=0;fillColor=#FFFFFF;fontSize=28;" parent="1" vertex="1">
          <mxGeometry x="1180" y="770" width="420" height="260" as="geometry" />
        </mxCell>
        <mxCell id="mpdO8tZQgs7oVaQ_EQz1-118" value="- usuario: String &#xa;- activo: boolean " style="text;strokeColor=none;fillColor=none;align=left;verticalAlign=top;spacingLeft=4;spacingRight=4;overflow=hidden;rotatable=0;points=[[0,0.5],[1,0.5]];portConstraint=eastwest;fontSize=25;" parent="mpdO8tZQgs7oVaQ_EQz1-117" vertex="1">
          <mxGeometry y="87" width="420" height="83" as="geometry" />
        </mxCell>
        <mxCell id="mpdO8tZQgs7oVaQ_EQz1-119" value="" style="line;strokeWidth=1;fillColor=none;align=left;verticalAlign=middle;spacingTop=-1;spacingLeft=3;spacingRight=3;rotatable=0;labelPosition=right;points=[];portConstraint=eastwest;" parent="mpdO8tZQgs7oVaQ_EQz1-117" vertex="1">
          <mxGeometry y="170" width="420" height="8" as="geometry" />
        </mxCell>
        <mxCell id="mpdO8tZQgs7oVaQ_EQz1-120" value="+ getters()&#xa;+ setter()" style="text;strokeColor=none;fillColor=none;align=left;verticalAlign=top;spacingLeft=4;spacingRight=4;overflow=hidden;rotatable=0;points=[[0,0.5],[1,0.5]];portConstraint=eastwest;fontSize=25;" parent="mpdO8tZQgs7oVaQ_EQz1-117" vertex="1">
          <mxGeometry y="178" width="420" height="82" as="geometry" />
        </mxCell>
        <mxCell id="mpdO8tZQgs7oVaQ_EQz1-121" value="UsuarioRequest&#xa;&lt;&lt;class&gt;&gt;" style="swimlane;fontStyle=1;align=center;verticalAlign=top;childLayout=stackLayout;horizontal=1;startSize=77;horizontalStack=0;resizeParent=1;resizeParentMax=0;resizeLast=0;collapsible=1;marginBottom=0;fillColor=#FFFFFF;fontSize=28;" parent="1" vertex="1">
          <mxGeometry x="1740" y="770" width="310" height="400" as="geometry" />
        </mxCell>
        <mxCell id="mpdO8tZQgs7oVaQ_EQz1-122" value="- usuario: String&#xa;- clave: String&#xa;- nombre: String&#xa;- apellido: String&#xa;- identificación: String&#xa;- idPerfil: BigInteger" style="text;strokeColor=none;fillColor=none;align=left;verticalAlign=top;spacingLeft=4;spacingRight=4;overflow=hidden;rotatable=0;points=[[0,0.5],[1,0.5]];portConstraint=eastwest;fontSize=25;" parent="mpdO8tZQgs7oVaQ_EQz1-121" vertex="1">
          <mxGeometry y="77" width="310" height="213" as="geometry" />
        </mxCell>
        <mxCell id="mpdO8tZQgs7oVaQ_EQz1-123" value="" style="line;strokeWidth=1;fillColor=none;align=left;verticalAlign=middle;spacingTop=-1;spacingLeft=3;spacingRight=3;rotatable=0;labelPosition=right;points=[];portConstraint=eastwest;" parent="mpdO8tZQgs7oVaQ_EQz1-121" vertex="1">
          <mxGeometry y="290" width="310" height="8" as="geometry" />
        </mxCell>
        <mxCell id="mpdO8tZQgs7oVaQ_EQz1-124" value="+ getters()&#xa;+ setter()" style="text;strokeColor=none;fillColor=none;align=left;verticalAlign=top;spacingLeft=4;spacingRight=4;overflow=hidden;rotatable=0;points=[[0,0.5],[1,0.5]];portConstraint=eastwest;fontSize=25;" parent="mpdO8tZQgs7oVaQ_EQz1-121" vertex="1">
          <mxGeometry y="298" width="310" height="102" as="geometry" />
        </mxCell>
        <mxCell id="mpdO8tZQgs7oVaQ_EQz1-133" value="" style="shape=folder;tabWidth=968;tabHeight=70;tabPosition=left;strokeWidth=2;html=1;whiteSpace=wrap;align=center;" parent="1" vertex="1">
          <mxGeometry x="-13.75" y="1390" width="2317.5" height="650" as="geometry" />
        </mxCell>
        <mxCell id="mpdO8tZQgs7oVaQ_EQz1-134" value="" style="shape=folder;tabWidth=1030;tabHeight=50;tabPosition=left;strokeWidth=2;html=1;whiteSpace=wrap;align=center;" parent="1" vertex="1">
          <mxGeometry x="3.75" y="1520" width="2230" height="450" as="geometry" />
        </mxCell>
        <mxCell id="mpdO8tZQgs7oVaQ_EQz1-135" value="&lt;b style=&quot;font-size: 35px;&quot;&gt;&lt;font style=&quot;font-size: 35px;&quot;&gt;service&lt;/font&gt;&lt;/b&gt;" style="text;html=1;strokeColor=none;fillColor=none;align=center;verticalAlign=middle;whiteSpace=wrap;rounded=0;fontSize=35;" parent="1" vertex="1">
          <mxGeometry x="13.75" y="1530" width="152.5" height="20" as="geometry" />
        </mxCell>
        <mxCell id="mpdO8tZQgs7oVaQ_EQz1-136" value="S3AlmacenamientoServiceImpl&#xa;&lt;&lt;class&gt;&gt;" style="swimlane;fontStyle=1;align=center;verticalAlign=top;childLayout=stackLayout;horizontal=1;startSize=80;horizontalStack=0;resizeParent=1;resizeParentMax=0;resizeLast=0;collapsible=1;marginBottom=0;fillColor=#FFFFFF;fontSize=28;" parent="1" vertex="1">
          <mxGeometry x="558.75" y="1700" width="460" height="142" as="geometry" />
        </mxCell>
        <mxCell id="mpdO8tZQgs7oVaQ_EQz1-137" value="-" style="text;strokeColor=none;fillColor=none;align=left;verticalAlign=top;spacingLeft=4;spacingRight=4;overflow=hidden;rotatable=0;points=[[0,0.5],[1,0.5]];portConstraint=eastwest;" parent="mpdO8tZQgs7oVaQ_EQz1-136" vertex="1">
          <mxGeometry y="80" width="460" height="54" as="geometry" />
        </mxCell>
        <mxCell id="mpdO8tZQgs7oVaQ_EQz1-138" value="" style="line;strokeWidth=1;fillColor=none;align=left;verticalAlign=middle;spacingTop=-1;spacingLeft=3;spacingRight=3;rotatable=0;labelPosition=right;points=[];portConstraint=eastwest;" parent="mpdO8tZQgs7oVaQ_EQz1-136" vertex="1">
          <mxGeometry y="134" width="460" height="8" as="geometry" />
        </mxCell>
        <mxCell id="mpdO8tZQgs7oVaQ_EQz1-139" value="&lt;span style=&quot;font-size: 35px;&quot;&gt;&lt;b style=&quot;font-size: 35px;&quot;&gt;autenticacion.almacenamiento&lt;/b&gt;&lt;/span&gt;" style="text;html=1;strokeColor=none;fillColor=none;align=center;verticalAlign=middle;whiteSpace=wrap;rounded=0;fontSize=35;" parent="1" vertex="1">
          <mxGeometry x="-4.25" y="1410" width="535" height="20" as="geometry" />
        </mxCell>
        <mxCell id="mpdO8tZQgs7oVaQ_EQz1-140" value="" style="endArrow=block;dashed=1;endFill=0;endSize=12;html=1;exitX=1;exitY=0.5;exitDx=0;exitDy=0;" parent="1" source="mpdO8tZQgs7oVaQ_EQz1-136" edge="1">
          <mxGeometry width="160" relative="1" as="geometry">
            <mxPoint x="773.7500000000007" y="1728.75" as="sourcePoint" />
            <mxPoint x="1238.75" y="1770.9999999999982" as="targetPoint" />
          </mxGeometry>
        </mxCell>
        <mxCell id="mpdO8tZQgs7oVaQ_EQz1-141" value="AlmacenamientoService&#xa;&lt;&lt;interface&gt;&gt;" style="swimlane;fontStyle=1;align=center;verticalAlign=top;childLayout=stackLayout;horizontal=1;startSize=90;horizontalStack=0;resizeParent=1;resizeParentMax=0;resizeLast=0;collapsible=1;marginBottom=0;fillColor=#FFFFFF;fontSize=28;" parent="1" vertex="1">
          <mxGeometry x="1241.25" y="1700" width="380" height="178" as="geometry" />
        </mxCell>
        <mxCell id="mpdO8tZQgs7oVaQ_EQz1-142" value="" style="line;strokeWidth=1;fillColor=none;align=left;verticalAlign=middle;spacingTop=-1;spacingLeft=3;spacingRight=3;rotatable=0;labelPosition=right;points=[];portConstraint=eastwest;" parent="mpdO8tZQgs7oVaQ_EQz1-141" vertex="1">
          <mxGeometry y="90" width="380" height="8" as="geometry" />
        </mxCell>
        <mxCell id="mpdO8tZQgs7oVaQ_EQz1-143" value="+ cargarObjeto()&#xa;+ descargarObjeto()" style="text;strokeColor=none;fillColor=none;align=left;verticalAlign=top;spacingLeft=4;spacingRight=4;overflow=hidden;rotatable=0;points=[[0,0.5],[1,0.5]];portConstraint=eastwest;fontSize=25;" parent="mpdO8tZQgs7oVaQ_EQz1-141" vertex="1">
          <mxGeometry y="98" width="380" height="80" as="geometry" />
        </mxCell>
      </root>
    </mxGraphModel>
  </diagram>
</mxfile>
